<svg id="Capa_1" data-name="Capa 1" xmlns="http://www.w3.org/2000/svg" viewBox="0 0 24 24"><path d="M24,12.69H0c0-.15,0-.31,0-.47,0-1.5,0-3,0-4.51A2.24,2.24,0,0,1,2.41,5.32c1,0,1.94,0,2.91,0,.7,0,.7,0,.7-.73,0-.55,0-1.11,0-1.66A2.17,2.17,0,0,1,8.32.77q3.69,0,7.37,0A2.22,2.22,0,0,1,18,3.11c0,.56,0,1.13,0,1.7,0,.4.13.53.52.52H21.8A2.11,2.11,0,0,1,24,7.42c0,1.7,0,3.41,0,5.11A.62.62,0,0,1,24,12.69ZM12,5.33h3.3c.39,0,.54-.12.52-.52a14,14,0,0,1,0-1.45c0-.31-.12-.41-.42-.41H8.61c-.28,0-.4.1-.39.38,0,.49,0,1,0,1.46s.13.55.54.55C9.83,5.31,10.9,5.33,12,5.33Z" style="fill:#0f0f0f"/><path d="M24,14.39v2c0,1.5,0,3,0,4.51a2.22,2.22,0,0,1-2.35,2.35H2.35A2.22,2.22,0,0,1,0,20.93c0-2,0-4.08,0-6.12,0-.41.15-.5.52-.5,2.62,0,5.25,0,7.87,0,.42,0,.61.11.58.57s0,1,0,1.55.24.88.8.89c1.49,0,3,.05,4.46,0,.59,0,.8-.31.82-.93s0-1.1,0-1.65c0-.29.1-.43.4-.43h8.32A.87.87,0,0,1,24,14.39Z" style="fill:#0f0f0f"/></svg>