<svg id="Capa_1" data-name="Capa 1" xmlns="http://www.w3.org/2000/svg" viewBox="0 0 24 24"><path d="M20.09,17.34V5.88c0-.6,0-.6-.62-.6H4.53c-.61,0-.61,0-.61.6,0,3.66,0,7.31,0,11,0,.4-.11.52-.5.5-.55,0-1.1,0-1.65,0-.29,0-.43-.06-.43-.39q0-6.36,0-12.71A1.51,1.51,0,0,1,2.73,2.7a4.87,4.87,0,0,1,.54,0c5.81,0,11.62,0,17.43,0a1.83,1.83,0,0,1,2,2c0,4.07,0,8.15,0,12.22,0,.39-.1.52-.49.5C21.51,17.32,20.84,17.34,20.09,17.34Z" style="fill:#0f0f0f"/><path d="M12,21.33H1c-.81,0-1-.14-1-1v-.8c0-.63.2-.83.83-.83H8.76c.62,0,.62,0,.62-.63,0-.46,0-.92,0-1.38s.18-.63.62-.63h6.64c.43,0,.64.2.65.61s0,1,0,1.56c0,.37.09.49.47.49,1.75,0,3.5,0,5.26,0,.82,0,1,.13,1,1v1a.59.59,0,0,1-.62.66c-.15,0-.3,0-.45,0Z" style="fill:#0f0f0f"/></svg>