<svg id="Capa_1" data-name="Capa 1" xmlns="http://www.w3.org/2000/svg" viewBox="0 0 24 24"><path d="M10,18.66H9.45c-2.42,0-4.84,0-7.27,0A2,2,0,0,1,0,16.47V3.5A2,2,0,0,1,2.17,1.33H21.84A2,2,0,0,1,24,3.5V16.56a2,2,0,0,1-2.08,2.1c-2.44,0-4.88,0-7.32,0H14c.24.7.43,1.33.68,1.94,0,.09.27.14.42.14.85,0,1.7,0,2.54,0a1,1,0,0,1,.95,1.37,1,1,0,0,1-1,.55H6.47c-.71,0-1.09-.34-1.09-1s.36-.95,1-1,1.63,0,2.45,0a.54.54,0,0,0,.65-.48C9.65,19.75,9.84,19.26,10,18.66ZM12.05,4H3.13c-.43,0-.55.12-.55.55q0,5.51,0,11c0,.44.11.59.57.59h17.7c.42,0,.57-.11.57-.55q0-5.55,0-11.1c0-.39-.11-.51-.5-.5Z" style="fill:#0f0f0f"/><path d="M8.54,10c.47.44.87.79,1.25,1.16a2.22,2.22,0,0,1,.37.44.76.76,0,0,1-.16,1,.73.73,0,0,1-1,0c-.73-.69-1.44-1.4-2.13-2.14a.67.67,0,0,1,0-1C7.57,8.8,8.26,8.09,9,7.41a.75.75,0,0,1,1.08,0,.77.77,0,0,1,0,1.09C9.61,9,9.12,9.46,8.54,10Z" style="fill:#0f0f0f"/><path d="M14.47,12.91a3.36,3.36,0,0,1-.65-.57.65.65,0,0,1,.12-.85q.59-.62,1.2-1.2c.2-.19.22-.34,0-.55C14.76,9.38,14.38,9,14,8.61A.79.79,0,1,1,15.13,7.5q1,.93,1.89,1.89a.8.8,0,0,1,0,1.25c-.62.63-1.25,1.26-1.89,1.88A4.8,4.8,0,0,1,14.47,12.91Z" style="fill:#0f0f0f"/></svg>