<svg id="Capa_1" data-name="Capa 1" xmlns="http://www.w3.org/2000/svg" viewBox="0 0 24 24"><path d="M2.84,10,.9,9.33A2.15,2.15,0,0,1,.39,9.1.78.78,0,0,1,0,8.32a.83.83,0,0,1,.6-.78L4,6.31c2.36-.84,4.73-1.68,7.09-2.54a2.48,2.48,0,0,1,1.72,0L23.28,7.5c.49.18.71.45.72.86s-.19.71-.71.9l-7.16,2.56C15.07,12.2,14,12.56,13,13a2.73,2.73,0,0,1-2,0c-2.21-.8-4.43-1.57-6.64-2.37a.45.45,0,0,0-.63.21c-.18.3-.35.6-.5.91a.69.69,0,0,0,.07.87.93.93,0,0,1,0,1.22,1.05,1.05,0,0,0-.17.9c.28,1.6.55,3.19.81,4.78.12.7-.08.92-.77.92s-1.18,0-1.76,0-.81-.27-.72-.83c.3-1.73.59-3.45.87-5.18a.61.61,0,0,0-.11-.43,1.14,1.14,0,0,1,.28-1.74A.59.59,0,0,0,2,11.93c.12-.31.2-.64.33-.94S2.64,10.4,2.84,10Z" style="fill:#0f0f0f"/><path d="M5.43,12.32l2.26.79c1,.35,2,.68,3,1.06a4.25,4.25,0,0,0,3.19-.2c1.47-.56,3-1.07,4.45-1.6a2.74,2.74,0,0,1,.32-.07c.07.64.15,1.26.22,1.88.11,1,.21,2.07.33,3.11a1.58,1.58,0,0,1-.64,1.47,7.06,7.06,0,0,1-3,1.25,16.74,16.74,0,0,1-5.86.23A9.61,9.61,0,0,1,5.85,19a1.8,1.8,0,0,1-1-1.88c.19-1.55.33-3.11.5-4.67C5.35,12.45,5.39,12.4,5.43,12.32Z" style="fill:#0f0f0f"/></svg>